<svg viewBox="0 0 24 24" xmlns="http://www.w3.org/2000/svg" role="img" aria-label="Google Cloud Platform">
  <!-- GCP Logo: stylized "G" shape in blue and red -->
  <defs>
    <linearGradient id="gcpGradient" x1="0%" y1="0%" x2="100%" y2="100%">
      <stop offset="0%" style="stop-color:#4285F4;stop-opacity:1" />
      <stop offset="100%" style="stop-color:#EA4335;stop-opacity:1" />
    </linearGradient>
  </defs>
  
  <!-- Outer circle -->
  <circle cx="12" cy="12" r="10.5" fill="none" stroke="#4285F4" stroke-width="1" opacity="0.3"/>
  
  <!-- Blue section -->
  <path d="M 12 3 A 9 9 0 0 1 19.5 6.5 L 16.5 9 A 5.5 5.5 0 0 0 12 8.5 Z" fill="#4285F4"/>
  
  <!-- Red section -->
  <path d="M 19.5 6.5 A 9 9 0 0 1 20 15 L 15 15 L 15 10 L 19.5 10 Z" fill="#EA4335"/>
  
  <!-- Yellow section -->
  <path d="M 20 15 A 9 9 0 0 1 12 21 L 12 15.5 A 3.5 3.5 0 0 0 15.5 15 Z" fill="#FBBC04"/>
  
  <!-- Green section -->
  <path d="M 12 21 A 9 9 0 0 1 4.5 17.5 L 8 14.5 A 5.5 5.5 0 0 0 12 15.5 Z" fill="#34A853"/>
</svg>